<?xml version="1.0" standalone="no"?>
<!DOCTYPE svg PUBLIC "-//W3C//DTD SVG 1.1//EN" "http://www.w3.org/Graphics/SVG/1.1/DTD/svg11.dtd">
<svg t="1756706121488" class="icon" viewBox="0 0 1025 1024" version="1.1" xmlns="http://www.w3.org/2000/svg" p-id="11606" xmlns:xlink="http://www.w3.org/1999/xlink" width="48.046875" height="48">
<path fill="currentColor" d="M315.227008 639.174002L124.100173 449.421023a36.889511 36.889511 0 0 1-11.020084-28.850989 42.706478 42.706478 0 0 1 12.803174-29.757149q58.169672-58.549675 139.694907-70.899769c54.457336-8.140831 96.126114 2.338479 125.459414 31.452547L596.984532 143.81101c-15.448579-15.331655-22.697865-34.521801-22.054783-57.906593a85.82219 85.82219 0 0 1 25.664811-59.7043C617.022377 9.640761 636.709449 1.090696 660.108857 0.067611c23.107098-0.847699 42.589554 6.270048 58.096595 21.660165l284.753701 282.707531c15.448579 15.34627 22.683249 34.536416 22.069398 57.921208a88.599134 88.599134 0 0 1-85.193724 85.851421c-23.384793 0.979238-42.662632-6.32851-58.11121-21.660164L675.820515 633.868577q43.978026 43.656485 32.358707 125.21095a242.836459 242.836459 0 0 1-69.905915 140.352604 42.384937 42.384937 0 0 1-29.698687 13.153946c-11.531626 0.350772-21.250931-3.186178-28.924066-10.815466L388.479872 711.900708m0 0" p-id="11607">
</path>
<path fill="currentColor" d="M388.465257 711.915323L0 1024l315.227008-384.811383 73.238249 72.726706z" p-id="11608">
</path>
</svg>