<?xml version="1.0" standalone="no"?><!DOCTYPE svg PUBLIC "-//W3C//DTD SVG 1.1//EN" "http://www.w3.org/Graphics/SVG/1.1/DTD/svg11.dtd"><svg t="1749448782293" class="icon" viewBox="0 0 1024 1024" version="1.1" xmlns="http://www.w3.org/2000/svg" p-id="16617" xmlns:xlink="http://www.w3.org/1999/xlink" width="48" height="48"><path d="M68.266667 575.3856C68.266667 333.858133 268.765867 136.533333 512 136.533333s443.733333 197.3248 443.733333 438.852267A312.081067 312.081067 0 0 1 643.652267 887.466667h-263.304534A312.081067 312.081067 0 0 1 68.266667 575.3856zM512 68.266667C231.936 68.266667 0 295.3216 0 575.3856 0 785.442133 170.2912 955.733333 380.347733 955.733333h263.304534C853.7088 955.733333 1024 785.442133 1024 575.3856 1024 295.3216 792.064 68.266667 512 68.266667zM307.2 409.6a34.133333 34.133333 0 0 0-34.133333 34.133333v170.666667a34.133333 34.133333 0 1 0 68.266666 0v-170.666667a34.133333 34.133333 0 0 0-34.133333-34.133333z m385.467733 10.103467a31.505067 31.505067 0 0 1 44.578134 44.544l-67.584 67.584 62.3616 62.395733a31.505067 31.505067 0 0 1-44.578134 44.578133l-79.701333-79.735466a31.197867 31.197867 0 0 1-1.365333-1.4336 31.505067 31.505067 0 0 1-3.857067-47.8208l90.146133-90.112z" fill="#121724" p-id="16618"></path></svg>